<?xml version="1.0" standalone="no"?>
<!DOCTYPE svg PUBLIC "-//W3C//DTD SVG 20010904//EN"
 "http://www.w3.org/TR/2001/REC-SVG-20010904/DTD/svg10.dtd">
<svg version="1.0" xmlns="http://www.w3.org/2000/svg"
 width="105.000000pt" height="105.000000pt" viewBox="0 0 105.000000 105.000000"
 preserveAspectRatio="xMidYMid meet">
<metadata>
Created by potrace 1.14, written by Peter Selinger 2001-2017
</metadata>
<g transform="translate(0.000000,105.000000) scale(0.100000,-0.100000)"
fill="#000000" stroke="none">
<path d="M385 1031 c-90 -25 -163 -69 -230 -137 -206 -208 -206 -530 0 -738
101 -103 225 -154 370 -154 328 0 570 289 516 616 -25 155 -139 306 -282 376
-88 43 -107 47 -224 51 -63 2 -108 -2 -150 -14z m230 -11 c87 -14 197 -72 264
-139 103 -104 153 -232 147 -381 -15 -360 -398 -585 -724 -425 -308 153 -375
559 -132 804 118 119 275 169 445 141z"/>
<path d="M381 695 c-26 -84 -62 -248 -57 -261 3 -8 22 -22 41 -30 30 -12 40
-12 62 -2 49 24 50 37 17 173 -17 69 -29 126 -25 126 18 4 87 5 93 2 4 -2 1
-21 -7 -42 -7 -22 -12 -41 -10 -43 1 -1 6 -52 9 -113 4 -60 8 -119 9 -130 2
-17 -5 -20 -48 -22 -74 -2 -75 -2 -75 -13 0 -6 53 -10 140 -10 87 0 140 4 140
10 0 11 -4 12 -77 13 l-53 0 5 41 c13 132 16 243 6 270 -7 16 -10 31 -8 33 7
6 79 12 92 7 8 -3 1 -43 -21 -130 -36 -139 -34 -155 19 -174 33 -11 91 10 101
36 3 8 -6 61 -20 117 -14 56 -30 118 -35 137 l-9 36 -140 0 -140 0 -9 -31z
m42 -133 c14 -51 24 -92 23 -93 -5 -5 -96 -5 -96 0 0 12 44 190 47 188 1 -2
13 -45 26 -95z m282 -92 c-2 -4 -25 -7 -50 -8 -38 0 -45 3 -41 16 3 10 12 46
21 82 25 101 26 101 51 6 12 -50 21 -93 19 -96z m-168 125 c-3 -59 -17 -59
-17 0 0 25 4 45 9 45 5 0 9 -20 8 -45z m-107 -165 c-8 -5 -24 -10 -35 -10 -11
0 -27 5 -35 10 -11 7 -1 10 35 10 36 0 46 -3 35 -10z m265 0 c-3 -5 -19 -10
-35 -10 -16 0 -32 5 -35 10 -4 6 10 10 35 10 25 0 39 -4 35 -10z"/>
</g>
</svg>
